<svg xmlns="http://www.w3.org/2000/svg" width="195" height="50" fill="none"><path fill="#63084D" d="M.055 6.356h47.108l-23.554 43.64L.055 6.357Z"/><path fill="#fff" d="M.774 43.94h.62c.413.282.86.555 1.342.818.465.263.947.497 1.446.704.499.207 1.007.376 1.523.508.516.15 1.033.225 1.549.225.878 0 1.54-.15 1.988-.45.464-.302.8-.724 1.006-1.27.155-.45.276-1.033.362-1.747.103-.714.18-1.531.232-2.452.052-.92.086-1.935.103-3.044.018-1.127.026-2.34.026-3.636V3.946c0-.432-.112-.79-.335-1.071-.224-.3-.5-.489-.827-.564l-3.768-.845V0h14.3v1.466l-3.38.845a1.55 1.55 0 0 0-.827.592c-.224.282-.336.63-.336 1.043v30.919c0 2.386-.3 4.51-.903 6.37-.602 1.879-1.411 3.466-2.427 4.763-1.015 1.296-2.203 2.283-3.562 2.96A9.29 9.29 0 0 1 4.621 50c-.31 0-.654-.028-1.033-.085-.396-.056-.8-.14-1.213-.253a10.317 10.317 0 0 1-1.24-.367A6.82 6.82 0 0 1 0 48.845l.774-4.905ZM22.856 37.655l3.407-.874c.327-.094.603-.282.826-.563.224-.282.336-.63.336-1.043V3.945c0-.431-.112-.788-.336-1.07-.223-.282-.499-.47-.826-.564l-3.407-.845V0H36.95v1.466l-3.536.845c-.327.075-.611.263-.852.564-.24.3-.361.658-.361 1.07v32.808h13.113a.692.692 0 0 0 .44-.14c.137-.095.249-.217.335-.367.086-.15.155-.31.206-.48.052-.169.095-.319.13-.45l1.832-7.582h1.678V39.12h-27.08v-1.466ZM54.619 30.445l1.408-.33a.667.667 0 0 0 .341-.214.581.581 0 0 0 .139-.394V17.688a.597.597 0 0 0-.139-.405.667.667 0 0 0-.341-.214l-1.408-.32v-.554h6.25c.484 0 1 .046 1.547.138a7.334 7.334 0 0 1 1.643.48c.547.22 1.073.516 1.578.886.505.37.95.832 1.334 1.386.384.548.69 1.199.917 1.952.235.754.352 1.625.352 2.614 0 1.265-.196 2.36-.587 3.285-.39.917-.924 1.678-1.6 2.283a6.398 6.398 0 0 1-2.357 1.344 9.285 9.285 0 0 1-2.87.437H54.62v-.555Zm6.368-.32c.86 0 1.607-.135 2.24-.405a4.078 4.078 0 0 0 1.578-1.205c.42-.527.733-1.17.939-1.931.206-.76.31-1.628.31-2.603 0-1.066-.14-2.026-.417-2.88-.27-.853-.657-1.578-1.162-2.176a5.026 5.026 0 0 0-1.803-1.376c-.704-.327-1.483-.49-2.336-.49H58.48v13.066h2.507Zm17.622-1.45v.842c-.228.214-.491.423-.79.63a6.062 6.062 0 0 1-.97.554 6.97 6.97 0 0 1-1.142.406c-.405.106-.825.16-1.258.16a5.24 5.24 0 0 1-1.952-.352 4.234 4.234 0 0 1-1.526-1.056c-.426-.47-.757-1.046-.992-1.728-.234-.683-.352-1.469-.352-2.358 0-.746.11-1.457.33-2.133a5.47 5.47 0 0 1 .982-1.792c.427-.512.943-.92 1.547-1.227.611-.305 1.298-.458 2.059-.458.654 0 1.233.12 1.738.362.512.235.939.544 1.28.928.349.384.612.825.79 1.323.184.498.277 1.006.277 1.525 0 .064-.004.135-.01.214 0 .07-.004.145-.011.224 0 .078-.007.153-.022.224a2.697 2.697 0 0 0-.032.192h-6.997c.007 1.557.31 2.748.907 3.573.604.825 1.5 1.237 2.688 1.237.398 0 .768-.042 1.109-.128.341-.092.65-.202.928-.33.277-.135.519-.278.725-.427a9.83 9.83 0 0 0 .544-.405h.15Zm-1.942-4.288c0-.463-.039-.9-.117-1.312a3.512 3.512 0 0 0-.384-1.099 2.1 2.1 0 0 0-.693-.757c-.285-.185-.633-.278-1.046-.278-.398 0-.757.082-1.077.246-.313.163-.59.394-.832.693a3.78 3.78 0 0 0-.587 1.077 6.82 6.82 0 0 0-.32 1.43h5.056Zm3.774-2.614a.723.723 0 0 0-.256-.341 1.497 1.497 0 0 0-.437-.181L79 20.995v-.523h4.822v.523l-1.547.362 2.453 5.888.534 1.387h.031l2.763-7.168-1.504-.47v-.522h3.808v.523l-.757.352c-.185.078-.33.149-.438.213a.554.554 0 0 0-.245.31l-2.837 6.965-1.163 2.272h-.544l-3.936-9.334Zm16.084 8.672 1.408-.33a.668.668 0 0 0 .341-.214.581.581 0 0 0 .139-.394V17.688a.597.597 0 0 0-.139-.405.668.668 0 0 0-.341-.214l-1.408-.32v-.554h10.933v3.488h-.693l-.693-2.219a.67.67 0 0 0-.16-.277c-.064-.071-.157-.107-.278-.107h-5.248v5.93h3.478c.142 0 .245-.031.309-.095a.736.736 0 0 0 .149-.267l.566-1.792h.586v5.195h-.586l-.566-1.782a.736.736 0 0 0-.149-.266c-.064-.071-.167-.107-.309-.107h-3.478v5.61c0 .164.05.296.15.395.099.1.216.171.352.214l1.557.33V31h-5.92v-.555Zm11.821.022 1.205-.288a.639.639 0 0 0 .341-.203.579.579 0 0 0 .139-.395V22.5a.707.707 0 0 0-.16-.47c-.099-.128-.259-.23-.48-.309l-1.035-.384v-.373l3.393-.704v2.357h.021c.199-.313.409-.615.629-.907.221-.291.462-.55.726-.778.27-.228.558-.413.864-.555a2.465 2.465 0 0 1 1.034-.213c.192 0 .363.01.512.032.149.014.285.039.406.074.128.029.245.068.351.118.114.042.232.092.353.149v2.528h-.672l-.342-.885a.42.42 0 0 0-.181-.192 1.136 1.136 0 0 0-.309-.139 2.709 2.709 0 0 0-.726-.117c-.263 0-.512.035-.746.106a3.025 3.025 0 0 0-1.248.79 5.974 5.974 0 0 0-.544.629v6.325c0 .164.042.295.128.395.085.1.199.167.341.203l1.429.288V31h-5.429v-.533Zm14.003.821c-.761 0-1.451-.128-2.07-.384a4.437 4.437 0 0 1-1.568-1.12 5.035 5.035 0 0 1-1.002-1.75c-.235-.682-.352-1.443-.352-2.282 0-.782.113-1.511.341-2.187a5.412 5.412 0 0 1 1.003-1.77 4.772 4.772 0 0 1 1.6-1.195c.633-.292 1.351-.437 2.154-.437.854 0 1.593.156 2.219.469a4.411 4.411 0 0 1 1.547 1.227c.412.505.718 1.091.917 1.76.206.668.309 1.365.309 2.09 0 .768-.117 1.49-.352 2.166a5.27 5.27 0 0 1-1.002 1.781 4.637 4.637 0 0 1-1.6 1.195c-.626.291-1.341.437-2.144.437Zm.149-.79c.576 0 1.052-.145 1.429-.437.377-.298.676-.672.896-1.12.221-.455.374-.949.459-1.482a9.768 9.768 0 0 0 .128-1.536c0-.598-.057-1.191-.171-1.782a5.41 5.41 0 0 0-.533-1.6 3.19 3.19 0 0 0-.96-1.152c-.398-.298-.882-.448-1.451-.448-.377 0-.711.068-1.002.203-.292.135-.548.32-.768.555a3.207 3.207 0 0 0-.544.8c-.143.298-.26.618-.352.96-.086.334-.146.679-.182 1.034a10.05 10.05 0 0 0-.053 1.003c0 .363.018.74.053 1.13.043.385.111.762.203 1.131.1.363.228.711.384 1.046.156.334.348.625.576.874.235.25.505.448.811.598.313.149.672.224 1.077.224Zm6.155-.031 1.195-.288a.709.709 0 0 0 .331-.214.543.543 0 0 0 .138-.384v-7.114a.679.679 0 0 0-.149-.448c-.1-.121-.26-.224-.48-.31l-1.024-.373v-.373l3.424-.704v1.738h.021c.278-.384.555-.697.832-.938.285-.242.569-.427.854-.555.284-.135.569-.224.853-.267.292-.05.587-.074.885-.074.47 0 .911.07 1.323.213.412.142.768.363 1.067.661.305.299.544.683.714 1.152.178.47.267 1.031.267 1.686v5.664c0 .177.046.32.139.426a.73.73 0 0 0 .33.214l1.056.288V31h-4.992v-.533l1.163-.288a.709.709 0 0 0 .331-.214.665.665 0 0 0 .128-.426v-4.95c0-.483-.029-.917-.086-1.301-.057-.391-.17-.722-.341-.992a1.621 1.621 0 0 0-.704-.64c-.299-.15-.697-.224-1.195-.224-.22 0-.448.021-.682.064a3.51 3.51 0 0 0-.694.203c-.227.085-.444.199-.65.341a2.45 2.45 0 0 0-.544.512v7.03c0 .163.042.294.128.394.092.1.206.167.341.203l1.024.288V31h-5.003v-.533Zm13.979-9.024h-1.696v-.608c.278-.064.53-.125.758-.182.227-.064.423-.149.586-.256.164-.106.292-.252.384-.437.093-.192.15-.452.171-.779l.085-1.354 1.558-.32v3.018h3.722l-.266.918h-3.456v7.306c0 .22.071.41.213.566.149.149.327.273.533.373.207.092.423.164.651.213a3.3 3.3 0 0 0 .597.064 2.6 2.6 0 0 0 .384-.032c.15-.028.292-.057.427-.085.142-.036.27-.071.384-.107.114-.042.199-.081.256-.117h.149v.619c-.099.064-.241.149-.426.256a5.744 5.744 0 0 1-.63.32c-.241.1-.508.185-.8.256a3.362 3.362 0 0 1-.896.117c-.384 0-.739-.05-1.066-.15a2.783 2.783 0 0 1-.854-.394 2.035 2.035 0 0 1-.565-.661 2.025 2.025 0 0 1-.203-.918v-7.626Zm6.54 2.997h5.984v1.525h-5.984V24.44Zm7.587 6.005 1.408-.33a.672.672 0 0 0 .342-.214.583.583 0 0 0 .138-.394V17.688a.598.598 0 0 0-.138-.405.672.672 0 0 0-.342-.214l-1.408-.32v-.554h10.912v3.509h-.714l-.694-2.24a.66.66 0 0 0-.16-.277c-.064-.071-.156-.107-.277-.107h-5.205v5.76h3.36c.142 0 .245-.032.309-.096a.635.635 0 0 0 .149-.256l.566-1.739h.608v5.088h-.608l-.566-1.717a.635.635 0 0 0-.149-.277c-.064-.071-.167-.107-.309-.107h-3.36v6.368h6.101c.128 0 .224-.032.288-.096a.726.726 0 0 0 .149-.288l.662-2.528h.714V31h-11.776v-.555Zm13.027.022 1.195-.288a.709.709 0 0 0 .331-.214.543.543 0 0 0 .138-.384v-7.114a.684.684 0 0 0-.149-.448c-.1-.121-.26-.224-.48-.31l-1.024-.373v-.373l3.424-.704v1.738h.021c.278-.384.555-.697.832-.938.285-.242.569-.427.854-.555.284-.135.568-.224.853-.267.291-.05.587-.074.885-.074.47 0 .91.07 1.323.213.412.142.768.363 1.067.661.305.299.544.683.714 1.152.178.47.267 1.031.267 1.686v5.664c0 .177.046.32.139.426a.73.73 0 0 0 .33.214l1.056.288V31h-4.992v-.533l1.163-.288a.709.709 0 0 0 .331-.214.665.665 0 0 0 .128-.426v-4.95c0-.483-.029-.917-.086-1.301-.057-.391-.17-.722-.341-.992a1.621 1.621 0 0 0-.704-.64c-.299-.15-.697-.224-1.195-.224-.22 0-.448.021-.682.064a3.51 3.51 0 0 0-.694.203c-.227.085-.444.199-.65.341a2.45 2.45 0 0 0-.544.512v7.03c0 .163.042.294.128.394.092.1.206.167.341.203l1.024.288V31h-5.003v-.533Zm20.379-1.046h-.021c-.306.42-.622.75-.95.992a4.138 4.138 0 0 1-.96.544 3.543 3.543 0 0 1-.864.214 6.41 6.41 0 0 1-.672.042c-.647 0-1.226-.128-1.738-.384a3.782 3.782 0 0 1-1.302-1.066 5.132 5.132 0 0 1-.821-1.622 7.199 7.199 0 0 1-.277-2.048c0-.817.11-1.585.33-2.304a5.755 5.755 0 0 1 .982-1.877c.426-.54.946-.967 1.557-1.28.619-.313 1.319-.47 2.101-.47.313 0 .594.033.843.097.256.057.487.135.693.234.214.093.402.203.566.331.163.128.309.256.437.384v-4.16a.73.73 0 0 0-.139-.459c-.085-.12-.241-.22-.469-.298l-1.205-.395v-.363l3.669-.714v14.154c0 .178.046.327.139.448.099.121.263.22.49.299l1.024.341v.374l-3.221.778h-.192v-1.792Zm-.096-7.648a1.934 1.934 0 0 0-.491-.277 3.598 3.598 0 0 0-.629-.203 5.498 5.498 0 0 0-1.163-.17c-.561 0-1.048.113-1.461.341a3.112 3.112 0 0 0-1.024.928c-.27.384-.473.828-.608 1.333a6.49 6.49 0 0 0-.192 1.6c0 .669.061 1.287.181 1.856.128.562.324 1.05.587 1.462.263.405.597.721 1.003.949.412.228.899.341 1.461.341.164 0 .352-.017.565-.053.221-.036.438-.096.651-.181.221-.086.43-.196.629-.331.2-.142.363-.316.491-.523v-7.072Z"/></svg>